<mxfile host="app.diagrams.net" agent="Mozilla/5.0 (Macintosh; Intel Mac OS X 10_15_7) AppleWebKit/537.36 (KHTML, like Gecko) Chrome/138.0.0.0 Safari/537.36" version="27.1.6">
  <diagram id="LCqUfTgrIjo71yWPEwkV" name="Страница — 1">
    <mxGraphModel dx="3372" dy="1520" grid="1" gridSize="10" guides="1" tooltips="1" connect="1" arrows="1" fold="1" page="1" pageScale="1" pageWidth="827" pageHeight="1169" math="0" shadow="0">
      <root>
        <mxCell id="0" />
        <mxCell id="1" parent="0" />
        <mxCell id="nacbDGdjozamuqg-GLFN-5" value="" style="edgeStyle=orthogonalEdgeStyle;rounded=0;orthogonalLoop=1;jettySize=auto;html=1;" edge="1" parent="1" source="nacbDGdjozamuqg-GLFN-1" target="nacbDGdjozamuqg-GLFN-4">
          <mxGeometry relative="1" as="geometry" />
        </mxCell>
        <mxCell id="nacbDGdjozamuqg-GLFN-7" value="" style="edgeStyle=orthogonalEdgeStyle;rounded=0;orthogonalLoop=1;jettySize=auto;html=1;" edge="1" parent="1" source="nacbDGdjozamuqg-GLFN-1" target="nacbDGdjozamuqg-GLFN-6">
          <mxGeometry relative="1" as="geometry" />
        </mxCell>
        <mxCell id="nacbDGdjozamuqg-GLFN-9" value="" style="edgeStyle=orthogonalEdgeStyle;rounded=0;orthogonalLoop=1;jettySize=auto;html=1;" edge="1" parent="1" source="nacbDGdjozamuqg-GLFN-1" target="nacbDGdjozamuqg-GLFN-8">
          <mxGeometry relative="1" as="geometry" />
        </mxCell>
        <mxCell id="nacbDGdjozamuqg-GLFN-11" value="" style="edgeStyle=orthogonalEdgeStyle;rounded=0;orthogonalLoop=1;jettySize=auto;html=1;" edge="1" parent="1" source="nacbDGdjozamuqg-GLFN-1" target="nacbDGdjozamuqg-GLFN-10">
          <mxGeometry relative="1" as="geometry" />
        </mxCell>
        <mxCell id="nacbDGdjozamuqg-GLFN-1" value="Безопасность данных" style="rounded=0;whiteSpace=wrap;html=1;" vertex="1" parent="1">
          <mxGeometry x="810" y="40" width="120" height="60" as="geometry" />
        </mxCell>
        <mxCell id="nacbDGdjozamuqg-GLFN-15" value="" style="edgeStyle=orthogonalEdgeStyle;rounded=0;orthogonalLoop=1;jettySize=auto;html=1;" edge="1" parent="1" source="nacbDGdjozamuqg-GLFN-4" target="nacbDGdjozamuqg-GLFN-14">
          <mxGeometry relative="1" as="geometry" />
        </mxCell>
        <mxCell id="nacbDGdjozamuqg-GLFN-17" value="" style="edgeStyle=orthogonalEdgeStyle;rounded=0;orthogonalLoop=1;jettySize=auto;html=1;" edge="1" parent="1" source="nacbDGdjozamuqg-GLFN-4" target="nacbDGdjozamuqg-GLFN-14">
          <mxGeometry relative="1" as="geometry" />
        </mxCell>
        <mxCell id="nacbDGdjozamuqg-GLFN-19" value="" style="edgeStyle=orthogonalEdgeStyle;rounded=0;orthogonalLoop=1;jettySize=auto;html=1;" edge="1" parent="1" source="nacbDGdjozamuqg-GLFN-4" target="nacbDGdjozamuqg-GLFN-18">
          <mxGeometry relative="1" as="geometry" />
        </mxCell>
        <mxCell id="nacbDGdjozamuqg-GLFN-21" value="" style="edgeStyle=orthogonalEdgeStyle;rounded=0;orthogonalLoop=1;jettySize=auto;html=1;" edge="1" parent="1" source="nacbDGdjozamuqg-GLFN-4" target="nacbDGdjozamuqg-GLFN-20">
          <mxGeometry relative="1" as="geometry" />
        </mxCell>
        <mxCell id="nacbDGdjozamuqg-GLFN-4" value="Публичные данные" style="whiteSpace=wrap;html=1;rounded=0;" vertex="1" parent="1">
          <mxGeometry x="30" y="190" width="120" height="60" as="geometry" />
        </mxCell>
        <mxCell id="nacbDGdjozamuqg-GLFN-25" value="" style="edgeStyle=orthogonalEdgeStyle;rounded=0;orthogonalLoop=1;jettySize=auto;html=1;" edge="1" parent="1" source="nacbDGdjozamuqg-GLFN-6" target="nacbDGdjozamuqg-GLFN-24">
          <mxGeometry relative="1" as="geometry" />
        </mxCell>
        <mxCell id="nacbDGdjozamuqg-GLFN-27" value="" style="edgeStyle=orthogonalEdgeStyle;rounded=0;orthogonalLoop=1;jettySize=auto;html=1;" edge="1" parent="1" source="nacbDGdjozamuqg-GLFN-6" target="nacbDGdjozamuqg-GLFN-26">
          <mxGeometry relative="1" as="geometry" />
        </mxCell>
        <mxCell id="nacbDGdjozamuqg-GLFN-31" value="" style="edgeStyle=orthogonalEdgeStyle;rounded=0;orthogonalLoop=1;jettySize=auto;html=1;" edge="1" parent="1" source="nacbDGdjozamuqg-GLFN-6" target="nacbDGdjozamuqg-GLFN-30">
          <mxGeometry relative="1" as="geometry" />
        </mxCell>
        <mxCell id="nacbDGdjozamuqg-GLFN-6" value="Конфиденциальные данные" style="whiteSpace=wrap;html=1;rounded=0;" vertex="1" parent="1">
          <mxGeometry x="440" y="190" width="120" height="60" as="geometry" />
        </mxCell>
        <mxCell id="nacbDGdjozamuqg-GLFN-36" value="" style="edgeStyle=orthogonalEdgeStyle;rounded=0;orthogonalLoop=1;jettySize=auto;html=1;" edge="1" parent="1" source="nacbDGdjozamuqg-GLFN-8" target="nacbDGdjozamuqg-GLFN-35">
          <mxGeometry relative="1" as="geometry">
            <Array as="points">
              <mxPoint x="910" y="290" />
              <mxPoint x="820" y="290" />
            </Array>
          </mxGeometry>
        </mxCell>
        <mxCell id="nacbDGdjozamuqg-GLFN-38" value="" style="edgeStyle=orthogonalEdgeStyle;rounded=0;orthogonalLoop=1;jettySize=auto;html=1;" edge="1" parent="1" source="nacbDGdjozamuqg-GLFN-8" target="nacbDGdjozamuqg-GLFN-37">
          <mxGeometry relative="1" as="geometry">
            <Array as="points">
              <mxPoint x="970" y="270" />
              <mxPoint x="970" y="270" />
            </Array>
          </mxGeometry>
        </mxCell>
        <mxCell id="nacbDGdjozamuqg-GLFN-40" value="" style="edgeStyle=orthogonalEdgeStyle;rounded=0;orthogonalLoop=1;jettySize=auto;html=1;" edge="1" parent="1" source="nacbDGdjozamuqg-GLFN-8" target="nacbDGdjozamuqg-GLFN-39">
          <mxGeometry relative="1" as="geometry">
            <Array as="points">
              <mxPoint x="930" y="270" />
              <mxPoint x="1120" y="270" />
            </Array>
          </mxGeometry>
        </mxCell>
        <mxCell id="nacbDGdjozamuqg-GLFN-44" value="" style="edgeStyle=orthogonalEdgeStyle;rounded=0;orthogonalLoop=1;jettySize=auto;html=1;" edge="1" parent="1" source="nacbDGdjozamuqg-GLFN-8" target="nacbDGdjozamuqg-GLFN-43">
          <mxGeometry relative="1" as="geometry">
            <Array as="points">
              <mxPoint x="1150" y="220" />
              <mxPoint x="1150" y="260" />
            </Array>
          </mxGeometry>
        </mxCell>
        <mxCell id="nacbDGdjozamuqg-GLFN-8" value="Внутренние данные" style="whiteSpace=wrap;html=1;rounded=0;" vertex="1" parent="1">
          <mxGeometry x="890" y="170" width="120" height="60" as="geometry" />
        </mxCell>
        <mxCell id="nacbDGdjozamuqg-GLFN-48" value="" style="edgeStyle=orthogonalEdgeStyle;rounded=0;orthogonalLoop=1;jettySize=auto;html=1;" edge="1" parent="1" source="nacbDGdjozamuqg-GLFN-10" target="nacbDGdjozamuqg-GLFN-47">
          <mxGeometry relative="1" as="geometry" />
        </mxCell>
        <mxCell id="nacbDGdjozamuqg-GLFN-50" value="" style="edgeStyle=orthogonalEdgeStyle;rounded=0;orthogonalLoop=1;jettySize=auto;html=1;" edge="1" parent="1" source="nacbDGdjozamuqg-GLFN-10" target="nacbDGdjozamuqg-GLFN-49">
          <mxGeometry relative="1" as="geometry">
            <Array as="points">
              <mxPoint x="1600" y="300" />
              <mxPoint x="1600" y="300" />
            </Array>
          </mxGeometry>
        </mxCell>
        <mxCell id="nacbDGdjozamuqg-GLFN-52" value="" style="edgeStyle=orthogonalEdgeStyle;rounded=0;orthogonalLoop=1;jettySize=auto;html=1;" edge="1" parent="1" source="nacbDGdjozamuqg-GLFN-10" target="nacbDGdjozamuqg-GLFN-51">
          <mxGeometry relative="1" as="geometry">
            <Array as="points">
              <mxPoint x="1740" y="230" />
            </Array>
          </mxGeometry>
        </mxCell>
        <mxCell id="nacbDGdjozamuqg-GLFN-10" value="Секретные данные" style="whiteSpace=wrap;html=1;rounded=0;" vertex="1" parent="1">
          <mxGeometry x="1540" y="200" width="120" height="60" as="geometry" />
        </mxCell>
        <mxCell id="nacbDGdjozamuqg-GLFN-14" value="Информация о жилых комплексах" style="whiteSpace=wrap;html=1;rounded=0;" vertex="1" parent="1">
          <mxGeometry x="170" y="330" width="120" height="60" as="geometry" />
        </mxCell>
        <mxCell id="nacbDGdjozamuqg-GLFN-18" value="Маркетинговые материалы" style="whiteSpace=wrap;html=1;rounded=0;" vertex="1" parent="1">
          <mxGeometry x="30" y="330" width="120" height="60" as="geometry" />
        </mxCell>
        <mxCell id="nacbDGdjozamuqg-GLFN-23" value="" style="edgeStyle=orthogonalEdgeStyle;rounded=0;orthogonalLoop=1;jettySize=auto;html=1;" edge="1" parent="1" source="nacbDGdjozamuqg-GLFN-20" target="nacbDGdjozamuqg-GLFN-22">
          <mxGeometry relative="1" as="geometry" />
        </mxCell>
        <mxCell id="nacbDGdjozamuqg-GLFN-20" value="Риск: искажение данных - значительный" style="whiteSpace=wrap;html=1;rounded=0;" vertex="1" parent="1">
          <mxGeometry x="-120" y="330" width="120" height="60" as="geometry" />
        </mxCell>
        <mxCell id="nacbDGdjozamuqg-GLFN-22" value="Причина: некорректные данные могут вводить клиентов в заблуждение (например, некорректная цена)" style="whiteSpace=wrap;html=1;rounded=0;" vertex="1" parent="1">
          <mxGeometry x="-150" y="475" width="180" height="110" as="geometry" />
        </mxCell>
        <mxCell id="nacbDGdjozamuqg-GLFN-34" style="edgeStyle=orthogonalEdgeStyle;rounded=0;orthogonalLoop=1;jettySize=auto;html=1;" edge="1" parent="1" source="nacbDGdjozamuqg-GLFN-24" target="nacbDGdjozamuqg-GLFN-28">
          <mxGeometry relative="1" as="geometry" />
        </mxCell>
        <mxCell id="nacbDGdjozamuqg-GLFN-24" value="Персональные данные клиентов" style="whiteSpace=wrap;html=1;rounded=0;" vertex="1" parent="1">
          <mxGeometry x="440" y="330" width="120" height="60" as="geometry" />
        </mxCell>
        <mxCell id="nacbDGdjozamuqg-GLFN-29" value="" style="edgeStyle=orthogonalEdgeStyle;rounded=0;orthogonalLoop=1;jettySize=auto;html=1;" edge="1" parent="1" source="nacbDGdjozamuqg-GLFN-26" target="nacbDGdjozamuqg-GLFN-28">
          <mxGeometry relative="1" as="geometry" />
        </mxCell>
        <mxCell id="nacbDGdjozamuqg-GLFN-26" value="Контакты и история сделок" style="whiteSpace=wrap;html=1;rounded=0;" vertex="1" parent="1">
          <mxGeometry x="600" y="330" width="120" height="60" as="geometry" />
        </mxCell>
        <mxCell id="nacbDGdjozamuqg-GLFN-28" value="Причина: утечка нарушает закон и может привести к штрафам" style="whiteSpace=wrap;html=1;rounded=0;" vertex="1" parent="1">
          <mxGeometry x="520" y="470" width="120" height="60" as="geometry" />
        </mxCell>
        <mxCell id="nacbDGdjozamuqg-GLFN-33" value="" style="edgeStyle=orthogonalEdgeStyle;rounded=0;orthogonalLoop=1;jettySize=auto;html=1;" edge="1" parent="1" source="nacbDGdjozamuqg-GLFN-30" target="nacbDGdjozamuqg-GLFN-32">
          <mxGeometry relative="1" as="geometry" />
        </mxCell>
        <mxCell id="nacbDGdjozamuqg-GLFN-30" value="Риск: утечка данных - критический" style="whiteSpace=wrap;html=1;rounded=0;" vertex="1" parent="1">
          <mxGeometry x="310" y="330" width="120" height="60" as="geometry" />
        </mxCell>
        <mxCell id="nacbDGdjozamuqg-GLFN-32" value="Причина: утечка данных - угроза доверию клиента" style="whiteSpace=wrap;html=1;rounded=0;" vertex="1" parent="1">
          <mxGeometry x="310" y="470" width="120" height="60" as="geometry" />
        </mxCell>
        <mxCell id="nacbDGdjozamuqg-GLFN-35" value="Техническая документация" style="whiteSpace=wrap;html=1;rounded=0;" vertex="1" parent="1">
          <mxGeometry x="760" y="330" width="120" height="60" as="geometry" />
        </mxCell>
        <mxCell id="nacbDGdjozamuqg-GLFN-37" value="Метаданные приложений" style="whiteSpace=wrap;html=1;rounded=0;" vertex="1" parent="1">
          <mxGeometry x="910" y="330" width="120" height="60" as="geometry" />
        </mxCell>
        <mxCell id="nacbDGdjozamuqg-GLFN-42" value="" style="edgeStyle=orthogonalEdgeStyle;rounded=0;orthogonalLoop=1;jettySize=auto;html=1;" edge="1" parent="1" source="nacbDGdjozamuqg-GLFN-39" target="nacbDGdjozamuqg-GLFN-41">
          <mxGeometry relative="1" as="geometry" />
        </mxCell>
        <mxCell id="nacbDGdjozamuqg-GLFN-39" value="Риск: некачественные данные - значительный" style="whiteSpace=wrap;html=1;rounded=0;" vertex="1" parent="1">
          <mxGeometry x="1060" y="330" width="120" height="60" as="geometry" />
        </mxCell>
        <mxCell id="nacbDGdjozamuqg-GLFN-41" value="Причина: некачественные данные затрудняют поддержку" style="whiteSpace=wrap;html=1;rounded=0;" vertex="1" parent="1">
          <mxGeometry x="1060" y="470" width="120" height="60" as="geometry" />
        </mxCell>
        <mxCell id="nacbDGdjozamuqg-GLFN-46" value="" style="edgeStyle=orthogonalEdgeStyle;rounded=0;orthogonalLoop=1;jettySize=auto;html=1;" edge="1" parent="1" source="nacbDGdjozamuqg-GLFN-43" target="nacbDGdjozamuqg-GLFN-45">
          <mxGeometry relative="1" as="geometry">
            <Array as="points">
              <mxPoint x="1260" y="390" />
              <mxPoint x="1260" y="390" />
            </Array>
          </mxGeometry>
        </mxCell>
        <mxCell id="nacbDGdjozamuqg-GLFN-43" value="Риск: обесценивание данных - незначительный" style="whiteSpace=wrap;html=1;rounded=0;" vertex="1" parent="1">
          <mxGeometry x="1200" y="230" width="120" height="60" as="geometry" />
        </mxCell>
        <mxCell id="nacbDGdjozamuqg-GLFN-45" value="Причина: обесценивание происходит при утечке или устревании данных" style="whiteSpace=wrap;html=1;rounded=0;" vertex="1" parent="1">
          <mxGeometry x="1200" y="440" width="140" height="90" as="geometry" />
        </mxCell>
        <mxCell id="nacbDGdjozamuqg-GLFN-47" value="Доступы к системам" style="whiteSpace=wrap;html=1;rounded=0;" vertex="1" parent="1">
          <mxGeometry x="1400" y="340" width="120" height="60" as="geometry" />
        </mxCell>
        <mxCell id="nacbDGdjozamuqg-GLFN-49" value="Интеграционные ключи" style="whiteSpace=wrap;html=1;rounded=0;" vertex="1" parent="1">
          <mxGeometry x="1540" y="340" width="120" height="60" as="geometry" />
        </mxCell>
        <mxCell id="nacbDGdjozamuqg-GLFN-56" value="" style="edgeStyle=orthogonalEdgeStyle;rounded=0;orthogonalLoop=1;jettySize=auto;html=1;" edge="1" parent="1" source="nacbDGdjozamuqg-GLFN-51" target="nacbDGdjozamuqg-GLFN-55">
          <mxGeometry relative="1" as="geometry" />
        </mxCell>
        <mxCell id="nacbDGdjozamuqg-GLFN-51" value="Риск утечка: критический" style="whiteSpace=wrap;html=1;rounded=0;" vertex="1" parent="1">
          <mxGeometry x="1680" y="340" width="120" height="60" as="geometry" />
        </mxCell>
        <mxCell id="nacbDGdjozamuqg-GLFN-55" value="Причина: доступ к системам - критическая уязвимость" style="whiteSpace=wrap;html=1;rounded=0;" vertex="1" parent="1">
          <mxGeometry x="1680" y="480" width="120" height="60" as="geometry" />
        </mxCell>
      </root>
    </mxGraphModel>
  </diagram>
</mxfile>
